<svg width="20" height="20" viewBox="0 0 20 20" fill="none" xmlns="http://www.w3.org/2000/svg">
<path fill-rule="evenodd" clip-rule="evenodd" d="M-0.00292611 10C-0.00292611 15.523 4.47407 20 9.99707 20C15.5201 20 19.9971 15.523 19.9971 10C19.9971 4.477 15.5201 3.57628e-06 9.99707 3.57628e-06C4.47407 3.57628e-06 -0.00292611 4.477 -0.00292611 10ZM13.5271 10.47C13.6675 10.6106 13.7464 10.8013 13.7464 11C13.7464 11.1988 13.6675 11.3894 13.5271 11.53L10.5271 14.53C10.3864 14.6705 10.1958 14.7493 9.99707 14.7493C9.79832 14.7493 9.6077 14.6705 9.46707 14.53L6.46707 11.53C6.39339 11.4613 6.33428 11.3785 6.29329 11.2865C6.2523 11.1945 6.23026 11.0952 6.22848 10.9945C6.2267 10.8938 6.24523 10.7938 6.28295 10.7004C6.32067 10.607 6.37682 10.5222 6.44803 10.451C6.51925 10.3797 6.60409 10.3236 6.69747 10.2859C6.79086 10.2482 6.89089 10.2296 6.99159 10.2314C7.0923 10.2332 7.19161 10.2552 7.28361 10.2962C7.37561 10.3372 7.45841 10.3963 7.52707 10.47L9.24707 12.19L9.24707 6C9.24707 5.80109 9.32609 5.61032 9.46674 5.46967C9.6074 5.32902 9.79816 5.25 9.99707 5.25C10.196 5.25 10.3867 5.32902 10.5274 5.46967C10.6681 5.61032 10.7471 5.80109 10.7471 6L10.7471 12.19L12.4671 10.47C12.6077 10.3296 12.7983 10.2507 12.9971 10.2507C13.1958 10.2507 13.3864 10.3296 13.5271 10.47Z" fill="#B8BECC"/>
</svg>
