<svg width="20" height="20" viewBox="0 0 20 20" fill="none" xmlns="http://www.w3.org/2000/svg">
<path fill-rule="evenodd" clip-rule="evenodd" d="M20 10C20 4.477 15.523 0 10 0C4.477 0 0 4.477 0 10C0 15.523 4.477 20 10 20C15.523 20 20 15.523 20 10ZM6.47 9.53C6.32955 9.38937 6.25066 9.19875 6.25066 9C6.25066 8.80125 6.32955 8.61063 6.47 8.47L9.47 5.47C9.61063 5.32955 9.80125 5.25066 10 5.25066C10.1988 5.25066 10.3894 5.32955 10.53 5.47L13.53 8.47C13.6037 8.53866 13.6628 8.62146 13.7038 8.71346C13.7448 8.80546 13.7668 8.90477 13.7686 9.00548C13.7704 9.10618 13.7518 9.20621 13.7141 9.2996C13.6764 9.39299 13.6203 9.47782 13.549 9.54904C13.4778 9.62026 13.393 9.6764 13.2996 9.71412C13.2062 9.75184 13.1062 9.77037 13.0055 9.76859C12.9048 9.76682 12.8055 9.74477 12.7135 9.70378C12.6215 9.66279 12.5387 9.60369 12.47 9.53L10.75 7.81V14C10.75 14.1989 10.671 14.3897 10.5303 14.5303C10.3897 14.671 10.1989 14.75 10 14.75C9.80109 14.75 9.61032 14.671 9.46967 14.5303C9.32902 14.3897 9.25 14.1989 9.25 14V7.81L7.53 9.53C7.38937 9.67045 7.19875 9.74934 7 9.74934C6.80125 9.74934 6.61063 9.67045 6.47 9.53Z" fill="#B8BECC"/>
</svg>
